<svg xmlns="http://www.w3.org/2000/svg" width="128" height="128" fill="none"><path fill="#fff" d="M0 0h128v128H0z"/><g clip-path="url(#a)"><path fill="#DE5833" fill-rule="evenodd" d="M64 118c29.8234 0 54-24.1766 54-54S93.8234 10 64 10 10 34.1766 10 64s24.1766 54 54 54Z" clip-rule="evenodd"/><path fill="#DDD" fill-rule="evenodd" d="M71.5939 104.289c0-.422.1036-.518-1.2374-3.191-3.564-7.137-7.1461-17.199-5.517-23.688.297-1.179-3.357-43.659-5.94-45.027-2.871-1.5299-6.4035-3.9571-9.6345-4.4971-1.6393-.2622-3.7887-.138-5.469.0883-.2986.0402-.3109.577-.0256.6737 1.1032.3737 2.4427 1.0226 3.2321 2.0038.1494.1857-.0511.4778-.2893.4865-.7441.0276-2.0941.3396-3.8752 1.8524-.2059.1749-.0348.4998.2303.4474 3.8276-.7573 7.7368-.3842 10.0405 1.7097.1495.1359.0714.3797-.1236.4327-19.9919 5.4329-16.0344 22.8236-10.7122 44.165 4.7405 19.0096 6.5244 25.1366 7.0869 27.0036.0545.18.1815.324.357.394 6.8818 2.74 21.877 2.862 21.877-1.799v-1.055Z" clip-rule="evenodd"/><path fill="#fff" fill-rule="evenodd" d="M113.57 64c0 27.3769-22.1931 49.57-49.57 49.57S14.4297 91.3769 14.4297 64 36.6231 14.4297 64 14.4297c27.3769 0 49.57 22.1934 49.57 49.5703Zm-61.1385 43.863c-1.3698-4.232-5.198-16.4963-8.9791-31.9956-.126-.5164-.2518-1.0304-.377-1.5418l-.0031-.0129c-4.5768-18.6941-8.315-33.9629 12.1728-38.7597.1873-.0439.2789-.2678.1549-.4149-2.3507-2.7887-6.7543-3.7027-12.3226-1.7817-.2284.0788-.4266-.1516-.2848-.3471 1.0919-1.5051 3.2257-2.6622 4.2791-3.1695.2177-.1048.2045-.4237-.0261-.4958-.6891-.2158-1.8622-.5458-3.1819-.7588-.3122-.0504-.3404-.5855-.027-.6277 7.894-1.062 16.1372 1.3079 20.2737 6.5186.0389.0491.0952.0834.1565.0965 15.1477 3.253 16.2323 27.1983 14.4873 28.2889-.344.215-1.4466.0917-2.9009-.0711-5.8939-.6594-17.5651-1.9653-7.9325 15.9868.0951.1773-.0308.412-.2296.4429-5.4134.8418 1.481 17.7477 6.5918 28.9599 20.0937-4.657 35.069-22.6699 35.069-44.18 0-25.047-20.305-45.3516-45.352-45.3516-25.047 0-45.3516 20.3046-45.3516 45.3516 0 21.0489 14.3397 38.748 33.7831 43.863Z" clip-rule="evenodd"/><path fill="#3CA82B" d="M81.1115 86.5265c-1.1531-.5344-5.587 2.6454-8.5299 5.0863-.6151-.8701-1.7747-1.5027-4.3906-1.0479-2.2895.3982-3.5534.9502-4.1173 1.9019-3.6137-1.3701-9.6931-3.4845-11.1617-1.4425-1.6055 2.2322.4012 12.7917 2.5334 14.1627 1.1133.716 6.4383-2.707 9.2191-5.067.4486.632 1.1709.994 2.6558.959 2.2457-.052 5.8882-.574 6.4535-1.6204.0343-.0632.0638-.1383.0891-.2244 2.8581 1.0678 7.8884 2.1988 9.0123 2.0298 2.9286-.439-.4079-14.1094-1.7637-14.7375Z"/><path fill="#4CBA3C" d="M72.8511 91.9253c.1212.2162.2187.4443.3016.6761.4075 1.1396 1.0713 4.7648.5693 5.66-.502.8961-3.7626 1.3281-5.774 1.3627-2.0114.0346-2.4643-.7012-2.8717-1.8403-.326-.9121-.4865-3.0552-.4826-4.2822-.0824-1.8204.5827-2.4603 3.6568-2.9578 2.275-.3681 3.4778.06 4.1721.7928 3.2297-2.4106 8.6187-5.8124 9.1443-5.1908 2.6207 3.1001 2.952 10.4796 2.3845 13.4487-.1856.9715-8.8635-.961-8.8635-2.0081 0-4.3467-1.1279-5.5391-2.2368-5.6611ZM53.8418 90.5679c.7106-1.1249 6.4744.2739 9.6383 1.682 0 0-.6502 2.9453.3849 6.4156.3027 1.015-7.2789 5.5335-8.2686 4.7565-1.1437-.899-3.2486-10.4898-1.7546-12.8541Z"/><path fill="#FC3" fill-rule="evenodd" d="M56.6331 67.7179c.4664-2.0277 2.6387-5.8489 10.3959-5.7561 3.9218-.0164 8.7933-.0017 12.023-.3686 4.8002-.5453 8.3634-1.7063 10.7377-2.6114 3.358-1.2811 4.5496-.9954 4.9675-.2288.459.8422-.0818 2.2966-1.2553 3.6354-2.2412 2.5573-6.2702 4.5389-13.386 5.127-7.1158.5881-11.83-1.3206-13.8592 1.787-.8753 1.3404-.1986 4.4993 6.6828 5.494 9.2989 1.3421 16.9359-1.617 17.8796.1701.9436 1.7872-4.4921 5.4232-13.8061 5.4994-9.3139.0761-15.1315-3.261-17.1946-4.9198-2.6174-2.1046-3.7888-5.174-3.1853-7.8282Z" clip-rule="evenodd"/><g fill="#14307E" opacity=".8"><path d="M68.4945 45.5446c.5195-.8506 1.6715-1.5072 3.5569-1.5072 1.8852 0 2.7722.7501 3.3862 1.5867.125.1702-.0643.3705-.258.2867-.0466-.0201-.0939-.0407-.1418-.0617-.6895-.3011-1.5361-.6709-2.9864-.6915-1.5513-.0221-2.5293.3664-3.1454.7012-.2075.1129-.5346-.1125-.4115-.3142ZM47.269 46.6329c1.8307-.765 3.2695-.6661 4.2867-.4255.2141.0506.363-.1798.1917-.318-.7895-.6368-2.5564-1.4273-4.8609-.568-2.0557.7665-3.0246 2.3591-3.0303 3.4063-.0013.2467.5063.2676.6376.0587.3548-.5644.9446-1.3885 2.7752-2.1535Z"/><path fill-rule="evenodd" d="M73.6529 57.1823c-1.6184 0-2.9312-1.3091-2.9312-2.9204s1.3128-2.9203 2.9312-2.9203 2.9312 1.309 2.9312 2.9203c0 1.6113-1.3128 2.9204-2.9312 2.9204Zm2.0645-3.8878c0-.4172-.3418-.7553-.7589-.7553-.4172 0-.7553.3381-.7589.7553 0 .4171.3417.7552.7589.7552.4208 0 .7589-.3381.7589-.7552ZM54.2321 56.2829c0 1.8811-1.5285 3.406-3.4167 3.406-1.8846 0-3.4167-1.5249-3.4167-3.406 0-1.881 1.5321-3.4059 3.4167-3.4059s3.4167 1.5249 3.4167 3.4059Zm-1.007-1.1293c0-.4855-.3956-.8812-.8847-.8812-.4856 0-.8812.3921-.8848.8812 0 .4855.3956.8812.8848.8812.4891 0 .8847-.3957.8847-.8812Z" clip-rule="evenodd"/></g></g><defs><clipPath id="a"><path fill="#fff" d="M10 10h108v108H10z"/></clipPath></defs></svg>