<svg xmlns="http://www.w3.org/2000/svg" width="128" height="128" fill="none"><g clip-path="url(#a)"><path fill="#008009" d="M0 0h128v128H0z"/><mask id="b" width="128" height="128" x="0" y="0" maskUnits="userSpaceOnUse" style="mask-type:luminance"><path fill="#fff" d="M64 128A64 64 0 1 0 64 0a64 64 0 0 0 0 128Z"/></mask><g mask="url(#b)"><path fill="#F0F0EB" d="M97.07 71.56a.15.15 0 0 1-.12-.01.16.16 0 0 1-.08-.1.15.15 0 0 1 .02-.12.16.16 0 0 1 .1-.08c13.17-6.79 15.32-21.44 8.67-26.67-7.01-5.54-13.97-.53-15.56.78a.23.23 0 0 1-.09.03.23.23 0 0 1-.09-.03.13.13 0 0 1-.06-.07l-.01-.09C93.1 25.08 71.82 9.83 50.06 17.13 24.54 25.8 34.27 57.39 36 62.43v.1a.17.17 0 0 1-.08.1c-.04.02-.07.02-.11.02-.04 0-.08-.02-.1-.05-7.78-7.16-26.35 1.75-18.58 26.5 5.2 16.63 24.58 18.4 36.88 18.4h1.9l.07.01.07.05.03.06c.02.03 0 .05 0 .08-2.58 10.09-2.72 31.6-2.72 33.7 0 .04.01.09.05.11.02.03.07.05.11.05h23.54l.07-.01.07-.05.02-.07v-.08c-.75-2.49-7.87-25.99-7.66-33.69l.01-.06.04-.05a.27.27 0 0 1 .06-.04l.06-.01h5.72c7.77 0 25.17-1.41 32.89-12.61 11.76-16.96-2.74-24.6-11.26-23.33Z"/></g><path fill="#008009" d="M81.04 36.02H46.85v55.9h34.19V74.08H59.8v-6.73H73.6v-6.8H59.8v-6.72h21.23V36.02Z"/></g><defs><clipPath id="a"><path fill="#fff" d="M0 0h128v128H0z"/></clipPath></defs></svg>