<svg xmlns="http://www.w3.org/2000/svg" width="128" height="128" fill="none"><path fill="#FFB319" d="M0 0h128v128H0z"/><path fill="#191919" d="M74.43 93.95h-21.6c-5.94 0-6.84-6.37-5.73-8.93a23.73 23.73 0 0 1 2.85-4.4 29 29 0 0 0 14.04 3.61 29.21 29.21 0 0 0 26.66-41.05 29.11 29.11 0 0 0-7.14-9.81l.67-.68a7.42 7.42 0 0 1 6.08-2.18l3.5.37v-14.3h-6.13a16.68 16.68 0 0 0-15.47 10.46 29.11 29.11 0 0 0-28.81 7.38 29.22 29.22 0 0 0-8.56 20.63c0 6.22 1.98 12.28 5.68 17.28l-1.73 1.33c-.26.2-.55.45-.85.73-5.92 5.52-8.63 12.74-7.08 20.77.85 4.4 4.59 8.97 8.39 11.4 2.7 1.7 5.83 2.6 9.03 2.62l24.22-.98a7.97 7.97 0 0 1 6.75 3.7l3.16 5.71 15.02-5.02-2.57-5.6a22.42 22.42 0 0 0-20.38-13.04ZM64 41.09a13.97 13.97 0 0 1 13.95 13.95A13.97 13.97 0 0 1 64 68.99a13.97 13.97 0 0 1-13.95-13.95A13.97 13.97 0 0 1 64 41.09Z"/></svg>