<svg xmlns="http://www.w3.org/2000/svg" width="128" height="128" fill="none"><path fill="#212327" d="M0 0h128v128H0z"/><g fill="#fff" clip-path="url(#a)"><path d="m96 17-2.6 10-9.9 2.5v1l10 2.6L96 43h1l2.5-10 10.1-2.6v-1l-10-2.5L97 17h-1Z"/><path fill-rule="evenodd" d="M90 63.8c0-18.4-12.8-28-28.5-28-15.8 0-28.5 9.6-28.5 28 0 17 10.8 26.3 24.8 27.7 7.2 11.8 17.6 15.5 29 12.2l.9-1 2.2-11.3-2-1.1c-6.4 5.4-16.8 5.4-23.6 1.2 14.4-1 25.6-10.3 25.6-27.7Zm-13.6 0c0 12.6-4.8 22.9-15 22.9-10.6 0-14.9-10.3-14.9-23 0-12.6 4.5-22.9 15-22.9 10.7 0 15 10.3 15 23Z" clip-rule="evenodd"/></g><defs><clipPath id="a"><path fill="#fff" d="M33 17h78v89H33z"/></clipPath></defs></svg>